<?xml version="1.0" encoding="UTF-8" standalone="no"?>
<!-- Created with Inkscape (http://www.inkscape.org/) -->

<svg
   xmlns:dc="http://purl.org/dc/elements/1.1/"
   xmlns:cc="http://creativecommons.org/ns#"
   xmlns:rdf="http://www.w3.org/1999/02/22-rdf-syntax-ns#"
   xmlns:svg="http://www.w3.org/2000/svg"
   xmlns="http://www.w3.org/2000/svg"
   version="1.1"
   width="744.09448"
   height="1052.3622"
   id="svg5105">
  <defs
     id="defs5107" />
  <metadata
     id="metadata5110">
    <rdf:RDF>
      <cc:Work
         rdf:about="">
        <dc:format>image/svg+xml</dc:format>
        <dc:type
           rdf:resource="http://purl.org/dc/dcmitype/StillImage" />
        <dc:title></dc:title>
      </cc:Work>
    </rdf:RDF>
  </metadata>
  <g
     id="layer1">
    <g
       transform="translate(-1677.5646,-368.19576)"
       id="g5170">
      <path
         d="m 1944.8392,932.25423 c -0.068,-0.0166 -31.2962,32.13598 -34.2812,44.34375 -2.985,12.20777 4.5111,24.54622 16.7188,27.53122 12.2078,2.985 24.515,-4.51095 27.5,-16.71872 2.9851,-12.20777 -9.9376,-55.15625 -9.9376,-55.15625 z m 156.3126,0 c -0.068,-0.0166 -31.2963,32.13599 -34.2813,44.34375 -2.9851,12.20778 4.4798,24.54622 16.6875,27.53122 12.2078,2.985 24.5463,-4.51094 27.5312,-16.71872 2.9851,-12.20776 -9.9374,-55.15625 -9.9374,-55.15625 z m 156.3124,0 c -0.068,-0.0166 -31.2962,32.13598 -34.2812,44.34375 -2.985,12.20777 4.4798,24.54622 16.6875,27.53122 12.2078,2.985 24.5462,-4.51095 27.5313,-16.71872 2.9849,-12.20777 -9.9376,-55.15625 -9.9376,-55.15625 z m -254.0937,40 c -0.068,-0.0166 -31.2963,32.13597 -34.2813,44.34377 -2.9849,12.2077 4.4798,24.5462 16.6876,27.5312 12.2078,2.985 24.5462,-4.5109 27.5312,-16.7187 2.985,-12.2078 -9.9375,-55.15627 -9.9375,-55.15627 z m 156.3125,0 c -0.068,-0.0166 -31.2963,32.13597 -34.2812,44.34377 -2.985,12.2078 4.4797,24.5462 16.6874,27.5312 12.2079,2.985 24.5151,-4.5109 27.5,-16.7187 2.9851,-12.2078 -9.9062,-55.15627 -9.9062,-55.15627 z m -254.0938,39.99997 c -0.068,-0.017 -31.2962,32.136 -34.2812,44.3438 -2.985,12.2077 4.4798,24.5462 16.6875,27.5312 12.2078,2.985 24.5463,-4.5109 27.5313,-16.7187 2.985,-12.2078 -9.9376,-55.1563 -9.9376,-55.1563 z m 156.2813,0 c -0.068,-0.017 -31.265,32.136 -34.25,44.3438 -2.985,12.2078 4.4797,24.5462 16.6875,27.5312 12.2077,2.985 24.515,-4.5109 27.5,-16.7187 2.985,-12.2078 -9.9375,-55.1563 -9.9375,-55.1563 z m 156.3125,0 c -0.068,-0.017 -31.265,32.136 -34.25,44.3438 -2.985,12.2077 4.4797,24.5462 16.6875,27.5312 12.2077,2.985 24.515,-4.511 27.5,-16.7187 2.985,-12.2078 -9.9375,-55.1563 -9.9375,-55.1563 z m -254.0938,40 c -0.068,-0.017 -31.2648,32.136 -34.25,44.3438 -2.9849,12.2078 4.4799,24.5462 16.6876,27.5312 12.2077,2.985 24.5148,-4.511 27.5,-16.7187 2.985,-12.2078 -9.9376,-55.1563 -9.9376,-55.1563 z m 156.3126,0 c -0.068,-0.017 -31.2963,32.136 -34.2813,44.3438 -2.985,12.2078 4.5111,24.5462 16.7187,27.5312 12.2078,2.985 24.5151,-4.511 27.5,-16.7187 2.9851,-12.2078 -9.9374,-55.1563 -9.9374,-55.1563 z m -254.0938,40 c -0.068,-0.017 -31.265,32.136 -34.25,44.3438 -2.985,12.2078 4.4797,24.5462 16.6875,27.5312 12.2077,2.985 24.515,-4.511 27.5,-16.7187 2.985,-12.2078 -9.9375,-55.1563 -9.9375,-55.1563 z m 156.3125,0 c -0.068,-0.017 -31.2963,32.136 -34.2813,44.3438 -2.9849,12.2078 4.511,24.5462 16.7188,27.5312 12.2077,2.985 24.515,-4.511 27.5,-16.7187 2.985,-12.2078 -9.9375,-55.1563 -9.9375,-55.1563 z m 156.3125,0 c -0.068,-0.017 -31.2963,32.1361 -34.2812,44.3438 -2.985,12.2078 4.511,24.5461 16.7187,27.5312 12.2078,2.985 24.5149,-4.511 27.5,-16.7187 2.985,-12.2078 -9.9375,-55.1563 -9.9375,-55.1563 z"
         id="path5049"
         style="fill:#0000ff;fill-opacity:1;stroke:none" />
      <path
         d="m 1944.8392,932.25423 c -0.068,-0.0166 -31.2962,32.13598 -34.2812,44.34375 -2.985,12.20777 4.5111,24.54622 16.7188,27.53122 12.2078,2.985 24.515,-4.51095 27.5,-16.71872 2.9851,-12.20777 -9.9376,-55.15625 -9.9376,-55.15625 z m 156.3126,0 c -0.068,-0.0166 -31.2963,32.13599 -34.2813,44.34375 -2.9851,12.20778 4.4798,24.54622 16.6875,27.53122 12.2078,2.985 24.5463,-4.51094 27.5312,-16.71872 2.9851,-12.20776 -9.9374,-55.15625 -9.9374,-55.15625 z m 156.3124,0 c -0.068,-0.0166 -31.2962,32.13598 -34.2812,44.34375 -2.985,12.20777 4.4798,24.54622 16.6875,27.53122 12.2078,2.985 24.5462,-4.51095 27.5313,-16.71872 2.9849,-12.20777 -9.9376,-55.15625 -9.9376,-55.15625 z m -254.0937,40 c -0.068,-0.0166 -31.2963,32.13597 -34.2813,44.34377 -2.9849,12.2077 4.4798,24.5462 16.6876,27.5312 12.2078,2.985 24.5462,-4.5109 27.5312,-16.7187 2.985,-12.2078 -9.9375,-55.15627 -9.9375,-55.15627 z m 156.3125,0 c -0.068,-0.0166 -31.2963,32.13597 -34.2812,44.34377 -2.985,12.2078 4.4797,24.5462 16.6874,27.5312 12.2079,2.985 24.5151,-4.5109 27.5,-16.7187 2.9851,-12.2078 -9.9062,-55.15627 -9.9062,-55.15627 z m -254.0938,39.99997 c -0.068,-0.017 -31.2962,32.136 -34.2812,44.3438 -2.985,12.2077 4.4798,24.5462 16.6875,27.5312 12.2078,2.985 24.5463,-4.5109 27.5313,-16.7187 2.985,-12.2078 -9.9376,-55.1563 -9.9376,-55.1563 z m 156.2813,0 c -0.068,-0.017 -31.265,32.136 -34.25,44.3438 -2.985,12.2078 4.4797,24.5462 16.6875,27.5312 12.2077,2.985 24.515,-4.5109 27.5,-16.7187 2.985,-12.2078 -9.9375,-55.1563 -9.9375,-55.1563 z m 156.3125,0 c -0.068,-0.017 -31.265,32.136 -34.25,44.3438 -2.985,12.2077 4.4797,24.5462 16.6875,27.5312 12.2077,2.985 24.515,-4.511 27.5,-16.7187 2.985,-12.2078 -9.9375,-55.1563 -9.9375,-55.1563 z m -254.0938,40 c -0.068,-0.017 -31.2648,32.136 -34.25,44.3438 -2.9849,12.2078 4.4799,24.5462 16.6876,27.5312 12.2077,2.985 24.5148,-4.511 27.5,-16.7187 2.985,-12.2078 -9.9376,-55.1563 -9.9376,-55.1563 z m 156.3126,0 c -0.068,-0.017 -31.2963,32.136 -34.2813,44.3438 -2.985,12.2078 4.5111,24.5462 16.7187,27.5312 12.2078,2.985 24.5151,-4.511 27.5,-16.7187 2.9851,-12.2078 -9.9374,-55.1563 -9.9374,-55.1563 z m -254.0938,40 c -0.068,-0.017 -31.265,32.136 -34.25,44.3438 -2.985,12.2078 4.4797,24.5462 16.6875,27.5312 12.2077,2.985 24.515,-4.511 27.5,-16.7187 2.985,-12.2078 -9.9375,-55.1563 -9.9375,-55.1563 z m 156.3125,0 c -0.068,-0.017 -31.2963,32.136 -34.2813,44.3438 -2.9849,12.2078 4.511,24.5462 16.7188,27.5312 12.2077,2.985 24.515,-4.511 27.5,-16.7187 2.985,-12.2078 -9.9375,-55.1563 -9.9375,-55.1563 z m 156.3125,0 c -0.068,-0.017 -31.2963,32.1361 -34.2812,44.3438 -2.985,12.2078 4.511,24.5461 16.7187,27.5312 12.2078,2.985 24.5149,-4.511 27.5,-16.7187 2.985,-12.2078 -9.9375,-55.1563 -9.9375,-55.1563 z"
         id="path5045"
         style="fill:#00ffff;fill-opacity:1;stroke:none" />
      <path
         d="m 2071.065,624.00064 c -30.7348,0 -58.0373,14.70959 -75.25,37.46874 -14.5938,-9.26756 -31.9011,-14.62499 -50.4688,-14.62499 -46.8762,0 -85.7683,34.21646 -93.0625,79.03124 -43.0734,8.7073 -75.5311,46.76545 -75.5311,92.40625 0,52.07257 42.2398,94.28126 94.3124,94.28126 21.2357,0 40.8317,-7.0284 56.5937,-18.875 9.1676,2.97269 18.9356,4.59375 29.0938,4.59375 9.8334,0 19.3376,-1.51965 28.25,-4.3125 16.7195,15.10442 38.8812,24.3125 63.1875,24.3125 24.6804,0 47.1627,-9.47919 63.9687,-25 15.1389,10.35953 33.4585,16.40625 53.1875,16.40625 15.6575,0 30.4112,-3.80895 43.4063,-10.5625 6.2741,1.31526 12.7725,2 19.4375,2 52.0725,0 94.2812,-42.2087 94.2812,-94.28126 0,-52.07256 -42.2087,-94.28125 -94.2812,-94.28125 -0.5112,0 -1.022,0.0231 -1.5313,0.0312 -16.7881,-20.34247 -41.9342,-33.52831 -70.1875,-34.28125 -15.0406,-32.09368 -47.6198,-54.31249 -85.4062,-54.31249 z"
         id="path5051"
         style="fill:#b3b3b3;fill-opacity:1;stroke:none" />
      <path
         d="m 2071.0337,619.98499 c -30.7714,0 -58.1687,14.27113 -76.1875,36.4375 -14.565,-8.53248 -31.4502,-13.5625 -49.5313,-13.5625 -47.8941,0 -87.7571,34.34004 -96.4374,79.74999 -43.6005,10.06429 -76.125,49.07889 -76.125,95.6875 0,54.23411 44.0472,98.28126 98.2812,98.28126 21.3791,0 41.1766,-6.89264 57.3125,-18.5 9.0039,2.71821 18.5237,4.21875 28.4063,4.21875 9.4809,0 18.6317,-1.39656 27.3124,-3.90625 17.2155,14.84941 39.6225,23.90625 64.125,23.90625 24.5985,0 47.0431,-9.1417 64.2813,-24.09375 15.2704,9.77098 33.3842,15.5 52.8437,15.5 15.8142,0 30.7532,-3.78999 44,-10.4375 6.1241,1.19179 12.4177,1.875 18.875,1.875 54.2342,0 98.2813,-44.04716 98.2813,-98.28126 0,-54.17089 -43.9465,-98.17876 -98.0937,-98.28125 -16.9956,-19.74901 -41.7321,-32.65242 -69.4688,-34.0625 -16.1207,-32.27552 -49.3856,-54.53124 -87.875,-54.53124 z m 0,8 c 36.2163,0 67.4131,21.30599 81.8125,52.03124 a 4.0004,4.0004 0 0 0 3.5313,2.3125 c 27.0615,0.72951 51.1144,13.33643 67.1874,32.8125 a 4.0004,4.0004 0 0 0 3.1563,1.46875 c 0.5879,-0.009 1.0784,-0.0312 1.4687,-0.0312 49.9112,0 90.2813,40.37022 90.2813,90.28125 0,49.91103 -40.3702,90.28126 -90.2813,90.28126 -6.4009,0 -12.6477,-0.64501 -18.6562,-1.90625 a 4.0004,4.0004 0 0 0 -2.6562,0.3437 c -12.4377,6.46025 -26.5627,10.125 -41.5626,10.125 -18.9177,0 -36.4342,-5.81995 -50.9374,-15.75 a 4.0004,4.0004 0 0 0 -4.9688,0.375 c -16.1011,14.87414 -37.5599,23.96875 -61.2188,23.96875 -23.2947,0 -44.4854,-8.81452 -60.5,-23.28125 a 4.0004,4.0004 0 0 0 -3.875,-0.84375 c -8.5404,2.67897 -17.6299,4.125 -27.0624,4.125 -9.7392,0 -19.0931,-1.55704 -27.875,-4.40625 a 4.0004,4.0004 0 0 0 -3.6563,0.625 c -15.0964,11.34565 -33.8352,18.0625 -54.1875,18.0625 -49.911,0 -90.2812,-40.37023 -90.2812,-90.28126 0,-43.75519 31.0624,-80.17399 72.3124,-88.5 a 4.0004,4.0004 0 0 0 3.1563,-3.25 c 6.9849,-42.90909 44.1648,-75.68749 89.0937,-75.68749 17.7963,0 34.3388,5.1272 48.3126,13.99999 a 4.0004,4.0004 0 0 0 5.3437,-0.96875 c 16.4857,-21.80894 42.5971,-35.90624 72.0625,-35.90624 z"
         id="path5053"
         style="font-size:medium;font-style:normal;font-variant:normal;font-weight:normal;font-stretch:normal;text-indent:0;text-align:start;text-decoration:none;line-height:normal;letter-spacing:normal;word-spacing:normal;text-transform:none;direction:ltr;block-progression:tb;writing-mode:lr-tb;text-anchor:start;baseline-shift:baseline;color:#000000;fill:#000000;fill-opacity:1;fill-rule:nonzero;stroke:none;stroke-width:8;marker:none;visibility:visible;display:inline;overflow:visible;enable-background:accumulate;font-family:Sans;-inkscape-font-specification:Sans" />
      <path
         d="m 2069.7212,636.76624 c -35.258,0 -65.6322,21.4416 -79.5625,52.31249 0.1075,0.0695 0.2052,0.14877 0.3125,0.21875 16.0094,-21.79041 41.4046,-35.87499 70,-35.87499 28.6826,0 54.1519,14.18413 70.1563,36.09374 -0.2189,0.039 -0.4381,0.0844 -0.6563,0.125 3.4635,4.85882 6.467,10.07566 8.9687,15.59375 5.4214,0.15107 10.7326,0.80256 15.875,1.90625 0.1567,0.0322 0.3122,0.0606 0.4688,0.0937 12.6482,2.78767 24.2976,8.32556 34.3438,16 -0.1341,0.0335 -0.2725,0.0598 -0.4063,0.0937 5.1962,3.72848 9.9347,7.97387 14.1563,12.59375 0.5101,-0.007 1.0191,-0.0312 1.5312,-0.0312 52.1643,0 94.4375,38.20068 94.4375,85.3125 0,12.12575 -2.7939,23.64934 -7.8437,34.09375 11.1935,-14.01981 17.8124,-31.20779 17.8124,-49.8125 0,-47.11182 -42.2732,-85.3125 -94.4374,-85.3125 -0.4257,0 -0.857,0.0262 -1.2813,0.0312 -15.7922,-18.91107 -38.8525,-31.10549 -64.7187,-31.96875 -14.1021,-30.40816 -44.229,-51.46874 -79.1563,-51.46874 z m -123.9375,21.125 c -2.2098,-0.036 -4.4141,0.0385 -6.6562,0.1875 -34.2585,2.27702 -62.2544,25.82146 -73.0626,57.59374 13.6814,-23.05874 37.3916,-39.05046 65.3126,-40.90625 16.4365,-1.09248 32.1034,2.86132 45.5937,10.59375 3.2767,-5.23997 7.1138,-10.08606 11.375,-14.46875 -12.4925,-8.03159 -27.0938,-12.74783 -42.5625,-12.99999 z m 128.625,29.84374 c -24.8685,0.0657 -47.7566,10.09867 -64.1562,26.53125 1.8694,1.34176 3.7154,2.71725 5.4687,4.1875 17.6229,-12.54099 39.9812,-18.89233 63.5,-16.25 49.6063,5.57324 85.4334,49.04093 80.0313,97.125 -0.6719,5.97927 -1.9321,11.77416 -3.75,17.28125 5.0969,-9.40345 8.4577,-19.90123 9.7187,-31.125 5.4022,-48.08407 -30.425,-91.58301 -80.0313,-97.15625 -3.6199,-0.4067 -7.2286,-0.60314 -10.7812,-0.59375 z m -151.9375,25.21875 c -6.9318,0.005 -13.9732,0.79948 -21.0313,2.4375 -20.4654,4.74958 -37.7435,15.89577 -50.0624,30.71875 0.8633,-4.60055 2.1185,-9.05218 3.6874,-13.375 -26.6639,6.9561 -48.4359,25.43551 -59.3123,49.59375 12.8519,-17.27652 31.9936,-29.8648 54.2186,-34.5 -12.4771,15.78433 -19.4749,35.48302 -19,56 5.4198,-34.77149 32.1285,-64.74041 69.4687,-73.40625 22.6976,-5.26761 45.308,-1.73598 64.0938,8.3125 4.4141,-2.54626 9.125,-4.73896 14.0312,-6.5625 -15.57,-12.21727 -35.2984,-19.23304 -56.0937,-19.21875 z"
         id="path5055"
         style="fill:#cccccc;fill-opacity:1;stroke:none" />
      <path
         d="m 1942.8574,936.05004 c -3.737,3.39269 1.3043,8.4656 0.8125,12.65625 2.6631,12.25831 4.9739,27.7338 -5.4687,37.125 -4.2848,4.41279 -10.2541,6.81509 -16.3126,7.5625 10.3827,7.59971 27.9737,1.15637 29.0626,-12.3125 1.0882,-12.43404 -3.4016,-24.40043 -5.7563,-36.49787 -0.7911,-2.79776 -1.4833,-5.9858 -2.3375,-8.53338 z m 156.3125,0 c -3.737,3.39269 1.3043,8.4656 0.8125,12.65625 2.571,12.00656 4.9595,27.17574 -4.9375,36.5625 -4.3266,4.77776 -10.6008,7.34804 -16.8437,8.125 10.424,7.53451 27.7618,1.23326 29.0624,-12.15625 1.0874,-12.25863 -3.2657,-24.08985 -5.5966,-36.03 -0.8342,-3.00499 -1.5842,-6.40495 -2.4971,-9.1575 z m 156.3125,0 c -3.737,3.39269 1.3043,8.4656 0.8125,12.65625 2.571,12.00656 4.9595,27.17574 -4.9375,36.5625 -4.3266,4.77776 -10.6008,7.34804 -16.8438,8.125 10.4241,7.53451 27.7619,1.23326 29.0626,-12.15625 1.0873,-12.25863 -3.2658,-24.08985 -5.5967,-36.03 -0.8342,-3.00499 -1.5842,-6.40495 -2.4971,-9.1575 z m -254.0938,40 c -3.737,3.39269 1.3044,8.4656 0.8126,12.65625 2.571,12.00651 4.9595,27.17571 -4.9376,36.56251 -4.3265,4.7778 -10.6008,7.348 -16.8437,8.125 10.4282,7.5391 27.7614,1.2235 29.0625,-12.1563 1.0873,-12.2586 -3.2657,-24.08981 -5.5966,-36.02996 -0.8343,-3.00499 -1.5843,-6.40495 -2.4972,-9.1575 z m 156.3126,-0.0312 c -3.9457,3.64674 1.5188,9.20745 0.9687,13.78125 2.6943,11.95041 4.4145,26.98941 -5.6563,36.03121 -3.8901,4.627 -11.5149,6.6916 -16,7.7813 10.4577,7.2139 27.5683,0.8827 28.7813,-12.5313 0.9738,-12.711 -3.5753,-25.09388 -6,-37.46871 -0.68,-2.51096 -1.3278,-5.22126 -2.0937,-7.59375 z M 1903.6074,1016.05 c -3.737,3.3927 1.3043,8.4656 0.8125,12.6563 2.571,12.0065 4.9595,27.1757 -4.9375,36.5625 -4.3266,4.7778 -10.6008,7.348 -16.8438,8.125 10.4241,7.5345 27.7619,1.2333 29.0626,-12.1563 1.0873,-12.2586 -3.2658,-24.0898 -5.5967,-36.03 -0.8342,-3.005 -1.5842,-6.4049 -2.4971,-9.1575 z m 156.2812,0 c -3.737,3.3927 1.3044,8.4656 0.8126,12.6563 2.663,12.2583 4.9738,27.7338 -5.4688,37.125 -3.8901,4.627 -11.5149,6.6916 -16,7.7812 10.2256,7.053 26.8451,1.1575 28.6562,-11.6875 1.4037,-12.1185 -3.0311,-23.9745 -5.25,-35.75 -0.918,-3.3244 -1.7493,-7.0566 -2.75,-10.125 z m 156.3126,0 c -3.7371,3.3927 1.3043,8.4656 0.8124,12.6563 2.6631,12.2583 4.9739,27.7338 -5.4687,37.125 -3.8901,4.627 -11.5149,6.6916 -16,7.7812 10.2255,7.0527 26.8472,1.1576 28.6563,-11.6875 1.4036,-12.1185 -3.0312,-23.9745 -5.25,-35.75 -0.9181,-3.3244 -1.7494,-7.0566 -2.75,-10.125 z m -254.0938,40 c -3.737,3.3927 1.3043,8.4656 0.8125,12.6563 2.6631,12.2583 4.9739,27.7338 -5.4687,37.125 -3.8902,4.627 -11.515,6.6916 -16,7.7812 10.2258,7.0564 26.8453,1.1551 28.6562,-11.6875 1.4037,-12.1185 -3.0311,-23.9745 -5.25,-35.75 -0.918,-3.3244 -1.7494,-7.0566 -2.75,-10.125 z m 156.3125,0 c -3.737,3.3927 1.3043,8.4656 0.8125,12.6563 2.6631,12.2583 4.9739,27.7338 -5.4688,37.125 -4.2847,4.4128 -10.254,6.8151 -16.3124,7.5625 10.3826,7.5997 27.9736,1.1564 29.0624,-12.3125 1.0883,-12.434 -3.4015,-24.4004 -5.7562,-36.4979 -0.7911,-2.7977 -1.4833,-5.9858 -2.3375,-8.5334 z m -254.0937,40 c -3.7371,3.3927 1.3043,8.4656 0.8124,12.6563 2.6631,12.2583 4.9739,27.7338 -5.4687,37.125 -3.8901,4.627 -11.5149,6.6916 -16,7.7812 10.2255,7.0527 26.8472,1.1576 28.6563,-11.6875 1.4036,-12.1185 -3.0312,-23.9745 -5.25,-35.75 -0.9181,-3.3244 -1.7494,-7.0566 -2.75,-10.125 z m 156.3124,0 c -3.737,3.3927 1.3044,8.4656 0.8126,12.6563 2.663,12.2583 4.9738,27.7338 -5.4688,37.125 -4.2847,4.4128 -10.254,6.8151 -16.3125,7.5625 10.3827,7.5997 27.9737,1.1564 29.0625,-12.3125 1.0883,-12.434 -3.4016,-24.4004 -5.7562,-36.4979 -0.7912,-2.7977 -1.4833,-5.9858 -2.3376,-8.5334 z m 156.3126,0 c -3.7371,3.3927 1.3043,8.4656 0.8124,12.6563 2.6631,12.2583 4.9739,27.7338 -5.4687,37.125 -4.2847,4.4128 -10.254,6.8151 -16.3125,7.5625 10.3827,7.5997 27.9737,1.1564 29.0625,-12.3125 1.0883,-12.434 -3.4016,-24.4004 -5.7562,-36.4979 -0.7912,-2.7977 -1.4833,-5.9858 -2.3375,-8.5334 z"
         id="path5057"
         style="fill:#0000ff;fill-opacity:1;stroke:none" />
      <path
         d="m 1945.7768,928.37923 c -3e-4,-6e-5 -3.1946,0.57505 -3.3438,0.6875 -0.1492,0.11245 -0.2087,0.1513 -0.25,0.1875 -0.083,0.0724 -0.097,0.0981 -0.125,0.125 -0.057,0.0539 -0.083,0.0837 -0.125,0.125 -0.083,0.0826 -0.1886,0.1863 -0.3125,0.3125 -0.2478,0.2524 -0.5905,0.60383 -1.0313,1.0625 -0.8815,0.91734 -2.1498,2.22687 -3.6562,3.84375 -3.0128,3.23376 -7.0438,7.69255 -11.1875,12.53125 -4.1437,4.8387 -8.3801,10.04395 -11.8437,14.9375 -3.4637,4.89355 -6.1866,9.24721 -7.2188,13.46875 -3.4997,14.31268 5.3451,28.84442 19.6562,32.34372 14.3112,3.4993 28.8148,-5.3513 32.3126,-19.65622 1.0329,-4.22445 0.6002,-9.30932 -0.2188,-15.25 -0.819,-5.94068 -2.1792,-12.54526 -3.625,-18.75 -2.8916,-12.40947 -6.125,-23.25 -6.125,-23.25 a 4.0004,4.0004 0 0 0 -2.9062,-2.71875 z m 156.3124,0 c -2e-4,-6e-5 -3.1943,0.57497 -3.3437,0.6875 -0.1494,0.11253 -0.2086,0.15127 -0.25,0.1875 -0.083,0.0725 -0.097,0.0981 -0.125,0.125 -0.057,0.0539 -0.083,0.0837 -0.125,0.125 -0.083,0.0827 -0.1886,0.18629 -0.3125,0.3125 -0.2478,0.25242 -0.5905,0.60383 -1.0312,1.0625 -0.8816,0.91734 -2.1499,2.22687 -3.6563,3.84375 -3.0128,3.23377 -7.0438,7.69255 -11.1875,12.53125 -4.1437,4.8387 -8.38,10.04395 -11.8438,14.9375 -3.4637,4.89355 -6.1865,9.24721 -7.2187,13.46875 -3.4983,14.30645 5.3124,28.84402 19.625,32.34372 14.3127,3.4997 28.8445,-5.345 32.3437,-19.65622 1.033,-4.22444 0.6002,-9.30932 -0.2187,-15.25 -0.8189,-5.94068 -2.1792,-12.54526 -3.625,-18.75 -2.8916,-12.40947 -6.125,-23.25 -6.125,-23.25 a 4.0004,4.0004 0 0 0 -2.9063,-2.71875 z m 156.3126,0 c -3e-4,-6e-5 -3.1946,0.57505 -3.3438,0.6875 -0.1492,0.11245 -0.2087,0.1513 -0.25,0.1875 -0.083,0.0724 -0.097,0.0981 -0.125,0.125 -0.057,0.0539 -0.083,0.0837 -0.125,0.125 -0.083,0.0826 -0.1886,0.1863 -0.3125,0.3125 -0.2478,0.2524 -0.5905,0.60383 -1.0313,1.0625 -0.8815,0.91734 -2.1498,2.22687 -3.6562,3.84375 -3.0128,3.23376 -7.0438,7.69255 -11.1875,12.53125 -4.1437,4.8387 -8.3801,10.04395 -11.8437,14.9375 -3.4637,4.89355 -6.1866,9.24721 -7.2188,13.46875 -3.4982,14.30641 5.3124,28.84402 19.625,32.34372 14.3127,3.4997 28.8443,-5.3451 32.3438,-19.65622 1.0329,-4.22442 0.6002,-9.30933 -0.2188,-15.25 -0.819,-5.94067 -2.1792,-12.54527 -3.625,-18.75 -2.8916,-12.40947 -6.125,-23.25 -6.125,-23.25 a 4.0004,4.0004 0 0 0 -2.9062,-2.71875 z m -315.5,11.6875 c 1.1643,4.20279 2.6741,9.8674 4.125,16.09375 1.4117,6.05836 2.7355,12.48565 3.5,18.03125 0.7644,5.5456 0.8345,10.40181 0.375,12.28125 -2.4723,10.11062 -12.5831,16.25192 -22.6876,13.78122 -10.1042,-2.47065 -16.2515,-12.61586 -13.7812,-22.71872 0.4603,-1.88234 2.7667,-6.15077 6,-10.71875 3.2333,-4.56798 7.3613,-9.65166 11.4062,-14.375 4.045,-4.72334 8.0139,-9.07833 10.9688,-12.25 0.044,-0.0476 0.05,-0.0779 0.094,-0.125 z m 156.3124,0 c 1.1643,4.2028 2.6742,9.8674 4.125,16.09375 1.4117,6.05836 2.7356,12.48565 3.5,18.03125 0.7645,5.5456 0.8346,10.40181 0.375,12.28125 -2.4705,10.10434 -12.6158,16.25162 -22.7187,13.78122 -10.1028,-2.47028 -16.2219,-12.60961 -13.75,-22.71872 0.4603,-1.88234 2.7667,-6.15077 6,-10.71875 3.2333,-4.56798 7.3613,-9.65165 11.4063,-14.375 4.0449,-4.72335 8.0138,-9.07833 10.9687,-12.25 0.044,-0.0476 0.05,-0.0779 0.094,-0.125 z m 156.3126,0 c 1.1642,4.2028 2.6741,9.8674 4.125,16.09375 1.4117,6.05836 2.7354,12.48565 3.5,18.03125 0.7645,5.5456 0.8345,10.40178 0.375,12.28125 -2.4708,10.1044 -12.6159,16.25162 -22.7188,13.78122 -10.1028,-2.47027 -16.2218,-12.60959 -13.75,-22.71872 0.4603,-1.88234 2.7667,-6.15077 6,-10.71875 3.2333,-4.56798 7.3613,-9.65166 11.4062,-14.375 4.045,-4.72334 8.0139,-9.07833 10.9688,-12.25 0.044,-0.0476 0.05,-0.0779 0.094,-0.125 z m -251.2188,28.3125 c -3e-4,-6e-5 -3.1945,0.57505 -3.3438,0.6875 -0.1492,0.11245 -0.2086,0.1513 -0.25,0.1875 -0.083,0.0724 -0.097,0.0981 -0.125,0.125 -0.057,0.0539 -0.083,0.0837 -0.125,0.125 -0.083,0.0826 -0.1886,0.1863 -0.3124,0.3125 -0.2478,0.2524 -0.5905,0.60383 -1.0313,1.0625 -0.8815,0.91734 -2.1499,2.22687 -3.6563,3.84375 -3.0127,3.23376 -7.0437,7.69255 -11.1874,12.53125 -4.1438,4.8387 -8.3801,10.04395 -11.8438,14.93747 -3.4637,4.8936 -6.1865,9.2472 -7.2188,13.4688 -3.498,14.3064 5.3123,28.844 19.625,32.3437 14.3127,3.4997 28.8445,-5.345 32.3438,-19.6562 1.0329,-4.2244 0.6002,-9.3094 -0.2188,-15.25 -0.8189,-5.9407 -2.1791,-12.5453 -3.625,-18.75002 -2.8916,-12.40947 -6.125,-23.25 -6.125,-23.25 a 4.0004,4.0004 0 0 0 -2.9062,-2.71875 z m 156.3125,0 c -3e-4,-6e-5 -3.1945,0.57504 -3.3437,0.6875 -0.1493,0.11246 -0.2087,0.1513 -0.25,0.1875 -0.083,0.0724 -0.097,0.0981 -0.125,0.125 -0.057,0.0539 -0.083,0.0837 -0.125,0.125 -0.083,0.0827 -0.1887,0.1863 -0.3126,0.3125 -0.2477,0.25241 -0.5904,0.60383 -1.0312,1.0625 -0.8815,0.91734 -2.1499,2.22687 -3.6562,3.84375 -3.0128,3.23376 -7.0438,7.69255 -11.1876,12.53125 -4.1437,4.8387 -8.38,10.04395 -11.8437,14.93747 -3.4637,4.8936 -6.1865,9.2472 -7.2187,13.4688 -3.4982,14.3064 5.3123,28.844 19.625,32.3437 14.3112,3.4993 28.8148,-5.3513 32.3124,-19.6562 1.0326,-4.2229 0.6284,-9.3096 -0.1874,-15.25 -0.8159,-5.9405 -2.1832,-12.5454 -3.625,-18.75002 -2.8837,-12.40934 -6.125,-23.25 -6.125,-23.25 a 4.0004,4.0004 0 0 0 -2.9063,-2.71875 z m -159.1875,11.6875 c 1.1643,4.2028 2.6742,9.8674 4.125,16.09375 1.4117,6.05832 2.7355,12.48562 3.5,18.03122 0.7645,5.5456 0.8346,10.4018 0.375,12.2813 -2.4707,10.1044 -12.6158,16.2516 -22.7188,13.7812 -10.1028,-2.4703 -16.2217,-12.6096 -13.75,-22.7187 0.4603,-1.8824 2.7668,-6.1508 6,-10.7188 3.2333,-4.568 7.3613,-9.65163 11.4063,-14.37497 4.045,-4.72334 8.0138,-9.07833 10.9687,-12.25 0.044,-0.0476 0.05,-0.0779 0.094,-0.125 z m 156.3438,0 c 1.1593,4.19784 2.6543,9.89967 4.0937,16.09375 1.4079,6.05842 2.7071,12.48542 3.4687,18.03122 0.7617,5.5459 0.835,10.4003 0.375,12.2813 -2.4721,10.1106 -12.5829,16.2519 -22.6874,13.7812 -10.1028,-2.4703 -16.2219,-12.6096 -13.75,-22.7187 0.4602,-1.8823 2.7667,-6.1508 6,-10.7188 3.2332,-4.568 7.3612,-9.65162 11.4062,-14.37497 4.045,-4.72335 8.0138,-9.07833 10.9688,-12.25 0.05,-0.0541 0.075,-0.0715 0.125,-0.125 z m -251.25,28.31247 c -3e-4,0 -3.1946,0.5751 -3.3438,0.6875 -0.1492,0.1125 -0.2087,0.1513 -0.25,0.1875 -0.083,0.072 -0.097,0.098 -0.125,0.125 -0.057,0.054 -0.083,0.084 -0.125,0.125 -0.083,0.083 -0.1886,0.1863 -0.3125,0.3125 -0.2478,0.2524 -0.5905,0.6039 -1.0313,1.0625 -0.8815,0.9174 -2.1498,2.2269 -3.6562,3.8438 -3.0128,3.2337 -7.0438,7.6925 -11.1875,12.5312 -4.1437,4.8387 -8.3801,10.044 -11.8437,14.9375 -3.4637,4.8936 -6.1866,9.2472 -7.2188,13.4688 -3.4982,14.3064 5.3124,28.844 19.625,32.3437 14.3127,3.4997 28.8444,-5.345 32.3438,-19.6562 1.0329,-4.2244 0.6002,-9.3093 -0.2188,-15.25 -0.819,-5.9407 -2.1792,-12.5453 -3.625,-18.75 -2.8916,-12.4095 -6.125,-23.25 -6.125,-23.25 a 4.0004,4.0004 0 0 0 -2.9062,-2.7188 z m 156.2812,0 c -3e-4,0 -3.1944,0.5749 -3.3438,0.6875 -0.1493,0.1126 -0.2086,0.1513 -0.25,0.1875 -0.083,0.072 -0.097,0.098 -0.125,0.125 -0.057,0.054 -0.083,0.084 -0.125,0.125 -0.083,0.083 -0.1887,0.1863 -0.3124,0.3125 -0.2476,0.2525 -0.591,0.6039 -1.0313,1.0625 -0.8807,0.9174 -2.1201,2.2269 -3.625,3.8438 -3.0098,3.2338 -7.0477,7.6925 -11.1875,12.5312 -4.1398,4.8387 -8.3831,10.0441 -11.8438,14.9375 -3.4606,4.8935 -6.1868,9.2488 -7.2187,13.4688 -3.4981,14.3064 5.3123,28.844 19.625,32.3437 14.3111,3.4993 28.8147,-5.3513 32.3125,-19.6562 1.0329,-4.2244 0.6002,-9.3093 -0.2188,-15.25 -0.8189,-5.9407 -2.1791,-12.5453 -3.625,-18.75 -2.8916,-12.4095 -6.125,-23.25 -6.125,-23.25 a 4.0004,4.0004 0 0 0 -2.9062,-2.7188 z m 156.3125,0 c -3e-4,0 -3.1944,0.5749 -3.3437,0.6875 -0.1494,0.1126 -0.2087,0.1513 -0.25,0.1875 -0.083,0.072 -0.097,0.098 -0.125,0.125 -0.057,0.054 -0.084,0.084 -0.125,0.125 -0.083,0.083 -0.1888,0.1863 -0.3126,0.3125 -0.2475,0.2525 -0.5909,0.6039 -1.0312,1.0625 -0.8807,0.9174 -2.1201,2.2269 -3.625,3.8438 -3.0098,3.2338 -7.0477,7.6925 -11.1875,12.5312 -4.1398,4.8387 -8.3831,10.0441 -11.8437,14.9375 -3.4607,4.8935 -6.1869,9.2488 -7.2188,13.4688 -3.4981,14.3064 5.3123,28.844 19.625,32.3437 14.3111,3.4994 28.8147,-5.3513 32.3125,-19.6562 1.0329,-4.2244 0.6002,-9.3093 -0.2187,-15.25 -0.819,-5.9407 -2.1792,-12.5453 -3.625,-18.75 -2.8917,-12.4095 -6.125,-23.25 -6.125,-23.25 a 4.0004,4.0004 0 0 0 -2.9063,-2.7188 z m -315.4687,11.6875 c 1.1642,4.2028 2.6741,9.8674 4.125,16.0938 1.4117,6.0583 2.7355,12.4856 3.5,18.0312 0.7644,5.5456 0.8345,10.4018 0.375,12.2813 -2.4707,10.1043 -12.6159,16.2516 -22.7188,13.7812 -10.1028,-2.4703 -16.2218,-12.6096 -13.75,-22.7187 0.4603,-1.8824 2.7667,-6.1508 6,-10.7188 3.2333,-4.5679 7.3613,-9.6516 11.4062,-14.375 4.045,-4.7233 8.0139,-9.0783 10.9688,-12.25 0.044,-0.048 0.05,-0.078 0.094,-0.125 z m 156.2812,0 c 1.1643,4.2028 2.6742,9.8674 4.125,16.0938 1.4117,6.0583 2.7355,12.4856 3.5,18.0312 0.7645,5.5456 0.8346,10.4018 0.375,12.2813 -2.4722,10.1106 -12.5832,16.2519 -22.6875,13.7812 -10.1029,-2.4703 -16.2219,-12.6096 -13.75,-22.7187 0.4606,-1.8839 2.7695,-6.1507 6,-10.7188 3.2305,-4.568 7.3339,-9.6516 11.375,-14.375 4.0411,-4.7233 8.0167,-9.0783 10.9687,-12.25 0.044,-0.047 0.05,-0.078 0.094,-0.125 z m 156.3125,0 c 1.1643,4.2028 2.6742,9.8674 4.125,16.0938 1.4117,6.0583 2.7355,12.4856 3.5,18.0312 0.7645,5.5456 0.8346,10.4018 0.375,12.2813 -2.4722,10.1106 -12.5832,16.2519 -22.6875,13.7812 -10.1029,-2.4703 -16.2219,-12.6096 -13.75,-22.7187 0.4606,-1.8839 2.7695,-6.1507 6,-10.7188 3.2305,-4.568 7.3339,-9.6516 11.375,-14.375 4.0411,-4.7233 8.0167,-9.0783 10.9688,-12.25 0.044,-0.047 0.05,-0.078 0.094,-0.125 z m -251.2187,28.3125 c -3e-4,0 -3.1945,0.5749 -3.3438,0.6875 -0.1493,0.1126 -0.2087,0.1513 -0.25,0.1875 -0.083,0.072 -0.097,0.098 -0.125,0.125 -0.057,0.054 -0.083,0.084 -0.125,0.125 -0.083,0.083 -0.1887,0.1863 -0.3125,0.3125 -0.2475,0.2525 -0.5909,0.6039 -1.0313,1.0625 -0.8806,0.9174 -2.12,2.2269 -3.625,3.8438 -3.0098,3.2338 -7.0477,7.6925 -11.1874,12.5312 -4.1398,4.8387 -8.3832,10.0441 -11.8438,14.9375 -3.4606,4.8935 -6.1868,9.2489 -7.2188,13.4688 -3.498,14.3064 5.3124,28.844 19.625,32.3437 14.3111,3.4993 28.8145,-5.3514 32.3126,-19.6562 1.0329,-4.2244 0.6002,-9.3093 -0.2188,-15.25 -0.819,-5.9407 -2.1792,-12.5453 -3.625,-18.75 -2.8916,-12.4095 -6.125,-23.25 -6.125,-23.25 a 4.0004,4.0004 0 0 0 -2.9062,-2.7188 z m 156.3124,0 c -2e-4,0 -3.1943,0.575 -3.3437,0.6875 -0.1494,0.1126 -0.2086,0.1513 -0.25,0.1875 -0.083,0.072 -0.097,0.098 -0.125,0.125 -0.057,0.054 -0.083,0.084 -0.125,0.125 -0.083,0.083 -0.1886,0.1863 -0.3125,0.3125 -0.2478,0.2525 -0.5905,0.6039 -1.0312,1.0625 -0.8816,0.9174 -2.1499,2.2269 -3.6563,3.8438 -3.0128,3.2338 -7.0438,7.6925 -11.1875,12.5312 -4.1437,4.8387 -8.38,10.044 -11.8438,14.9375 -3.4637,4.8936 -6.1865,9.2472 -7.2187,13.4688 -3.4997,14.3127 5.3452,28.8444 19.6563,32.3437 14.3111,3.4993 28.8148,-5.3513 32.3124,-19.6562 1.033,-4.2245 0.6002,-9.3093 -0.2187,-15.25 -0.8189,-5.9407 -2.1792,-12.5453 -3.625,-18.75 -2.8916,-12.4095 -6.125,-23.25 -6.125,-23.25 a 4.0004,4.0004 0 0 0 -2.9063,-2.7188 z m -159.1874,11.6875 c 1.1642,4.2028 2.6741,9.8674 4.125,16.0938 1.4117,6.0583 2.7355,12.4856 3.5,18.0312 0.7644,5.5456 0.8345,10.4018 0.375,12.2813 -2.4724,10.1106 -12.5832,16.2519 -22.6876,13.7812 -10.1027,-2.4703 -16.2217,-12.6095 -13.75,-22.7187 0.4607,-1.884 2.7695,-6.1507 6,-10.7188 3.2306,-4.568 7.334,-9.6516 11.375,-14.375 4.0411,-4.7233 8.0168,-9.0783 10.9688,-12.25 0.044,-0.047 0.05,-0.078 0.094,-0.125 z m 156.3124,0 c 1.1643,4.2028 2.6742,9.8674 4.125,16.0938 1.4117,6.0583 2.7356,12.4856 3.5,18.0312 0.7645,5.5456 0.8346,10.4018 0.375,12.2813 -2.4721,10.1105 -12.583,16.2519 -22.6874,13.7812 -10.1042,-2.4706 -16.2516,-12.6158 -13.7813,-22.7187 0.4603,-1.8824 2.7667,-6.1508 6,-10.7188 3.2333,-4.5679 7.3613,-9.6516 11.4063,-14.375 4.0449,-4.7233 8.0138,-9.0783 10.9687,-12.25 0.044,-0.048 0.05,-0.078 0.094,-0.125 z m -251.2187,28.3125 c -3e-4,0 -3.1946,0.575 -3.3437,0.6875 -0.1492,0.1126 -0.2088,0.1513 -0.25,0.1875 -0.083,0.072 -0.097,0.098 -0.125,0.125 -0.057,0.054 -0.084,0.084 -0.125,0.125 -0.083,0.083 -0.1888,0.1863 -0.3126,0.3125 -0.2475,0.2524 -0.5909,0.6039 -1.0312,1.0625 -0.8806,0.9174 -2.1201,2.2269 -3.625,3.8438 -3.0098,3.2337 -7.0477,7.6925 -11.1875,12.5312 -4.1398,4.8387 -8.3831,10.0441 -11.8437,14.9375 -3.4607,4.8935 -6.1869,9.2488 -7.2188,13.4688 -3.4981,14.3064 5.3123,28.844 19.625,32.3437 14.3111,3.4993 28.8147,-5.3513 32.3125,-19.6562 1.0329,-4.2244 0.6002,-9.3093 -0.2187,-15.25 -0.819,-5.9407 -2.1792,-12.5453 -3.625,-18.75 -2.8917,-12.4095 -6.125,-23.25 -6.125,-23.25 a 4.0004,4.0004 0 0 0 -2.9063,-2.7188 z m 156.3125,0 c -3e-4,0 -3.1945,0.5751 -3.3438,0.6875 -0.1492,0.1125 -0.2086,0.1513 -0.25,0.1875 -0.083,0.072 -0.097,0.098 -0.125,0.125 -0.057,0.054 -0.083,0.084 -0.125,0.125 -0.083,0.083 -0.1886,0.1863 -0.3124,0.3125 -0.2478,0.2524 -0.5905,0.6039 -1.0313,1.0625 -0.8815,0.9174 -2.1499,2.2269 -3.6563,3.8438 -3.0127,3.2337 -7.0437,7.6925 -11.1874,12.5312 -4.1438,4.8387 -8.3801,10.044 -11.8438,14.9375 -3.4637,4.8936 -6.1865,9.2472 -7.2188,13.4688 -3.4995,14.3126 5.3451,28.8444 19.6563,32.3437 14.3111,3.4993 28.8147,-5.3513 32.3125,-19.6562 1.0329,-4.2244 0.6002,-9.3093 -0.2188,-15.25 -0.8189,-5.9407 -2.1791,-12.5453 -3.625,-18.75 -2.8916,-12.4095 -6.125,-23.25 -6.125,-23.25 a 4.0004,4.0004 0 0 0 -2.9062,-2.7188 z m 156.3125,0 c -3e-4,0 -3.1945,0.5751 -3.3437,0.6875 -0.1493,0.1125 -0.2087,0.1513 -0.25,0.1875 -0.083,0.072 -0.097,0.098 -0.125,0.125 -0.057,0.054 -0.083,0.084 -0.125,0.125 -0.083,0.083 -0.1887,0.1863 -0.3126,0.3125 -0.2477,0.2524 -0.5904,0.6039 -1.0312,1.0625 -0.8815,0.9174 -2.1499,2.2269 -3.6562,3.8438 -3.0128,3.2338 -7.0438,7.6925 -11.1876,12.5312 -4.1437,4.8387 -8.38,10.044 -11.8437,14.9375 -3.4637,4.8936 -6.1865,9.2472 -7.2187,13.4688 -3.4997,14.3127 5.3451,28.8443 19.6562,32.3437 14.3112,3.4993 28.8146,-5.3514 32.3125,-19.6562 1.0329,-4.2244 0.6002,-9.3093 -0.2187,-15.25 -0.819,-5.9407 -2.1792,-12.5453 -3.625,-18.75 -2.8917,-12.4095 -6.125,-23.25 -6.125,-23.25 a 4.0004,4.0004 0 0 0 -2.9063,-2.7188 z m -315.5,11.6875 c 1.1643,4.2028 2.6742,9.8674 4.125,16.0938 1.4117,6.0583 2.7355,12.4856 3.5,18.0312 0.7645,5.5456 0.8346,10.4018 0.375,12.2813 -2.4722,10.1105 -12.5832,16.2519 -22.6875,13.7812 -10.1029,-2.4703 -16.2219,-12.6095 -13.75,-22.7187 0.4606,-1.8839 2.7695,-6.1507 6,-10.7188 3.2305,-4.568 7.3339,-9.6516 11.375,-14.375 4.0411,-4.7233 8.0167,-9.0783 10.9688,-12.25 0.044,-0.047 0.05,-0.078 0.094,-0.125 z m 156.3125,0 c 1.1643,4.2028 2.6742,9.8674 4.125,16.0938 1.4117,6.0583 2.7355,12.4856 3.5,18.0312 0.7645,5.5456 0.8346,10.4018 0.375,12.2813 -2.4722,10.1105 -12.5832,16.2519 -22.6875,13.7812 -10.1044,-2.4706 -16.2515,-12.6158 -13.7813,-22.7187 0.4603,-1.8824 2.7668,-6.1508 6,-10.7188 3.2333,-4.5679 7.3613,-9.6516 11.4063,-14.375 4.045,-4.7233 8.0138,-9.0783 10.9687,-12.25 0.044,-0.048 0.05,-0.078 0.094,-0.125 z m 156.3125,0 c 1.1643,4.2028 2.6742,9.8674 4.125,16.0938 1.4117,6.0583 2.7355,12.4856 3.5,18.0312 0.7645,5.5456 0.8346,10.4018 0.375,12.2813 -2.4723,10.1106 -12.5831,16.2519 -22.6875,13.7812 -10.1043,-2.4707 -16.2516,-12.6158 -13.7812,-22.7187 0.4602,-1.8823 2.7667,-6.1508 6,-10.7188 3.2332,-4.5679 7.3612,-9.6516 11.4062,-14.375 4.045,-4.7233 8.0138,-9.0783 10.9688,-12.25 0.044,-0.048 0.05,-0.078 0.094,-0.125 z"
         id="path5047"
         style="font-size:medium;font-style:normal;font-variant:normal;font-weight:normal;font-stretch:normal;text-indent:0;text-align:start;text-decoration:none;line-height:normal;letter-spacing:normal;word-spacing:normal;text-transform:none;direction:ltr;block-progression:tb;writing-mode:lr-tb;text-anchor:start;baseline-shift:baseline;color:#000000;fill:#000000;fill-opacity:1;fill-rule:nonzero;stroke:none;stroke-width:8;marker:none;visibility:visible;display:inline;overflow:visible;enable-background:accumulate;font-family:Sans;-inkscape-font-specification:Sans" />
    </g>
  </g>
</svg>
