<?xml version="1.0" encoding="UTF-8"?>
<!DOCTYPE svg PUBLIC "-//W3C//DTD SVG 1.1//EN" "http://www.w3.org/Graphics/SVG/1.1/DTD/svg11.dtd">
<!-- Creator: CorelDRAW -->
<svg xmlns="http://www.w3.org/2000/svg" xml:space="preserve" width="137.665mm" height="137.665mm" style="shape-rendering:geometricPrecision; text-rendering:geometricPrecision; image-rendering:optimizeQuality; fill-rule:evenodd; clip-rule:evenodd"
viewBox="0 0 137.665 137.665"
 xmlns:xlink="http://www.w3.org/1999/xlink">
 <defs>
  <style type="text/css">
   <![CDATA[
    .str0 {stroke:#373435;stroke-width:0.2}
    .str2 {stroke:#B0913C;stroke-width:1}
    .str1 {stroke:#D19F22;stroke-width:1}
    .fil7 {fill:none}
    .fil2 {fill:#373435}
    .fil10 {fill:#606062}
    .fil8 {fill:#A9ABAE}
    .fil13 {fill:#D2D3D5}
    .fil11 {fill:#FEFEFE}
    .fil9 {fill:#0B0B0B}
    .fil14 {fill:#D19F22}
    .fil12 {fill:url(#id0)}
    .fil3 {fill:url(#id1)}
    .fil6 {fill:url(#id2)}
    .fil15 {fill:url(#id3)}
    .fil4 {fill:url(#id4)}
    .fil5 {fill:url(#id5)}
    .fil1 {fill:url(#id6)}
    .fil0 {fill:url(#id7)}
   ]]>
  </style>
  <linearGradient id="id0" gradientUnits="userSpaceOnUse" x1="68.7818" y1="102.081" x2="68.7818" y2="123.38">
   <stop offset="0" style="stop-color:#D19F22"/>
   <stop offset="1" style="stop-color:#AD8108"/>
  </linearGradient>
  <linearGradient id="id1" gradientUnits="userSpaceOnUse" x1="17.561" y1="68.8325" x2="120.104" y2="68.8325">
   <stop offset="0" style="stop-color:#383637"/>
   <stop offset="1" style="stop-color:#202020"/>
  </linearGradient>
  <linearGradient id="id2" gradientUnits="userSpaceOnUse" x1="14.5133" y1="56.2985" x2="124.072" y2="56.2985">
   <stop offset="0" style="stop-color:#A20000"/>
   <stop offset="1" style="stop-color:#E90101"/>
  </linearGradient>
  <linearGradient id="id3" gradientUnits="userSpaceOnUse" x1="23.38" y1="35.1578" x2="114.185" y2="35.1578">
   <stop offset="0" style="stop-color:#A33B3B"/>
   <stop offset="1" style="stop-color:#E84C4C"/>
  </linearGradient>
  <linearGradient id="id4" gradientUnits="userSpaceOnUse" x1="10.5341" y1="56.8984" x2="127.252" y2="56.8984">
   <stop offset="0" style="stop-color:#B20000"/>
   <stop offset="1" style="stop-color:#FE0000"/>
  </linearGradient>
  <linearGradient id="id5" gradientUnits="userSpaceOnUse" x1="23.2647" y1="45.4146" x2="114.07" y2="45.4146">
   <stop offset="0" style="stop-color:#B33030"/>
   <stop offset="1" style="stop-color:#FC6262"/>
  </linearGradient>
  <linearGradient id="id6" gradientUnits="userSpaceOnUse" x1="7.0368" y1="16.794" x2="130.628" y2="120.871">
   <stop offset="0" style="stop-color:#373435"/>
   <stop offset="1" style="stop-color:#FEFEFE"/>
  </linearGradient>
  <linearGradient id="id7" gradientUnits="userSpaceOnUse" x1="126.769" y1="141.253" x2="10.896" y2="-3.5881">
   <stop offset="0" style="stop-color:#383838"/>
   <stop offset="0.509804" style="stop-color:#0B0B0B"/>
   <stop offset="1" style="stop-color:#FEFEFE"/>
  </linearGradient>
 </defs>
 <g id="Camada_x0020_1">
  <metadata id="CorelCorpID_0Corel-Layer"/>
  <g id="_461876816">
   <circle id="_177021832" class="fil0 str0" cx="68.8325" cy="68.8325" r="68.7325"/>
   <circle id="_177024496" class="fil1 str0" cx="68.8325" cy="68.8325" r="59.7243"/>
   <circle id="_461869376" class="fil2" cx="68.9133" cy="69.0132" r="58.3219"/>
   <path id="_461877392" class="fil3" d="M68.8325 120.104c-28.3165,0 -51.2715,-22.955 -51.2715,-51.2715 0,-28.3165 22.955,-51.2715 51.2715,-51.2715 28.3165,0 51.2715,22.955 51.2715,51.2715 0,28.3165 -22.955,51.2715 -51.2715,51.2715zm0 -17.5352c-18.632,0 -33.7363,-15.1043 -33.7363,-33.7363 0,-18.632 15.1043,-33.7363 33.7363,-33.7363 18.632,0 33.7363,15.1043 33.7363,33.7363 0,18.632 -15.1043,33.7363 -33.7363,33.7363z"/>
   <path id="_179330680" class="fil4" d="M68.8929 10.5059c32.2307,0 58.3588,26.1281 58.3588,58.3588 0,12.7541 -4.0944,24.5503 -11.0362,34.1524l-22.1823 -16.2884c3.588,-5.0404 5.6982,-11.2057 5.6982,-17.864 0,-17.0316 -13.8069,-30.8385 -30.8385,-30.8385 -17.0316,0 -30.8385,13.8069 -30.8385,30.8385 0,6.6808 2.1251,12.865 5.7353,17.9148l-21.5444 15.3253 -0.4752 1.1862c-7.0629,-9.6512 -11.236,-21.5505 -11.236,-34.4263 0,-32.2307 26.1281,-58.3588 58.3588,-58.3588z"/>
   <path id="_56668464" class="fil5" d="M98.5612 77.3073c0.7621,-2.6832 1.1702,-5.5152 1.1702,-8.4426 0,-17.0316 -13.8069,-30.8385 -30.8385,-30.8385 -17.0316,0 -30.8385,13.8069 -30.8385,30.8385 0,3.0705 0.4492,6.0359 1.2848,8.8347 -9.8315,-6.717 -16.0745,-16.7453 -16.0745,-27.9511 0,-20.2238 20.3274,-36.6184 45.4025,-36.6184 25.0752,0 45.4026,16.3946 45.4026,36.6184 0,10.9895 -6.0039,20.8471 -15.5086,27.559z"/>
   <g>
    <path id="_462375584" class="fil6" d="M102.999 25.6466c2.8492,2.2272 5.4722,4.7302 7.829,7.4692l-1.0302 0.8645c-1.7938,-3.0313 -4.0886,-5.8324 -6.7988,-8.3337zm8.6797 8.4821c3.7363,4.5587 6.753,9.73 8.8733,15.342l-6.4217 2.3373c0.0477,-0.6876 0.0721,-1.3803 0.0721,-2.0775 0,-5.1815 -1.3367,-10.1108 -3.7439,-14.5779l1.2202 -1.0239zm9.3256 16.585c1.9175,5.4741 2.9913,11.3447 3.0637,17.4563l-7.9375 0c-0.0669,-4.824 -0.8636,-9.4714 -2.2835,-13.8378 0.0551,-0.354 0.1039,-0.7095 0.1463,-1.0666l7.011 -2.5519zm3.068 18.7791c-0.0724,6.1124 -1.146,11.9836 -3.0644,17.4576l-7.4613 -2.7157c1.6106,-4.6265 2.5162,-9.5832 2.5876,-14.7419l7.9381 0zm-106.491 17.4563c-1.9174,-5.4741 -2.9913,-11.3447 -3.0637,-17.4563l7.9375 0c0.0715,5.1581 0.9774,10.1141 2.5873,14.7406l-7.4611 2.7157zm-3.068 -18.7791c0.0724,-6.1124 1.146,-11.9835 3.0643,-17.4576l5.9871 2.1791c0.1233,1.1628 0.3141,2.3101 0.5691,3.4393 -1.0434,3.7764 -1.6257,7.7441 -1.6824,11.8392l-7.9381 0zm3.5168 -18.7006c2.1213,-5.6118 5.1374,-10.784 8.8749,-15.3423l0.5466 0.4586c-2.6031,4.6157 -4.0541,9.7435 -4.0541,15.1448 0,0.5734 0.0171,1.1435 0.0496,1.7105l-5.417 -1.9716zm9.7268 -16.3543c0.7715,-0.8961 1.5714,-1.767 2.3984,-2.6113 -0.7268,0.9483 -1.4006,1.9257 -2.0203,2.9286l-0.3781 -0.3173z"/>
    <line id="_179571216" class="fil7 str1" x1="113.457" y1="43.0935" x2="115.758" y2= "41.7648" />
    <line id="_179580736" class="fil7 str1" x1="116.785" y1="77.1696" x2="122.256" y2= "78.1345" />
    <line id="_177026152" class="fil7 str1" x1="116.76" y1="60.3509" x2="122.231" y2= "59.3861" />
    <line id="_461871728" class="fil7 str1" x1="22.6874" y1="42.0172" x2="24.1926" y2= "42.8862" />
    <line id="_179571288" class="fil7 str1" x1="16.3455" y1="59.472" x2="21.8174" y2= "60.4368" />
    <line id="_177022216" class="fil7 str1" x1="16.3293" y1="78.098" x2="21.8012" y2= "77.1332" />
   </g>
   <circle id="_177023128" class="fil8" cx="68.8325" cy="68.8325" r="33.5716"/>
   <circle id="_177020752" class="fil9 str0" cx="68.8325" cy="68.8325" r="33.5875"/>
   <path id="_179057880" class="fil10" d="M68.6172 85.9794c-12.9215,0 -24.5821,-4.3538 -32.8502,-11.3414 -0.3742,-2.0074 -0.572,-4.0768 -0.572,-6.1927 0,-18.5498 15.0377,-33.5875 33.5875,-33.5875 18.5498,0 33.5875,15.0377 33.5875,33.5875 0,1.9965 -0.1752,3.9519 -0.5092,5.8526 -8.2896,7.1852 -20.1146,11.6815 -33.2436,11.6815z"/>
   <polygon id="_177024592" class="fil11" points="62.2114,67.9516 115.34,56.0983 63.6931,73.2433 59.2481,71.7616 "/>
   <path id="_177023920" class="fil12" d="M53.993 102.771c8.7884,4.0449 20.6308,4.0689 29.9836,0.2117 1.5251,-0.629 1.5357,-0.1327 1.512,1.5166l-0.2055 14.216c-4.4675,4.5504 -29.3073,4.6655 -33.2317,-0.2116l0.1137 -13.644c0.0137,-1.6499 0.329,-2.7786 1.8279,-2.0887z"/>
   <path id="_177025864" class="fil13" d="M19.3074 90.2334c14.5774,45.3568 86.4781,45.4752 101.402,-3.7042 -18.2831,41.981 -79.7651,44.8423 -101.402,3.7042z"/>
   <path id="_179330848" class="fil14" d="M52.072 118.503l-0.0345 -1.3914c11.1829,3.2871 22.2635,3.3158 33.2417,0.0873l-0.0212 1.464c-4.4515,4.5341 -29.1267,4.664 -33.186,-0.1599z"/>
   <g>
    <path id="_462193920" class="fil15" d="M69.2754 14.0171c3.0175,0 5.9777,0.2444 8.8623,0.7139l-1.3786 7.8189c-2.4368,-0.3914 -4.9364,-0.5953 -7.4837,-0.5953 -2.5474,0 -5.0461,0.2063 -7.4832,0.5976l-1.3786 -7.8179c2.885,-0.4693 5.8442,-0.7172 8.8618,-0.7172zm-45.1586 42.2814c-0.2545,-1.1282 -0.4432,-2.2747 -0.5664,-3.4364l1.4711 0.5354c-0.3319,0.9533 -0.6338,1.9207 -0.9047,2.901zm-0.6859 -4.8876c-0.0333,-0.567 -0.0509,-1.1373 -0.0509,-1.711 0,-5.4013 1.451,-10.5291 4.0541,-15.1448l5.5343 4.6439c-3.1481,3.8554 -5.6935,8.222 -7.494,12.9557l-2.0435 -0.7438zm4.6866 -18.0091c0.6197,-1.0029 1.2935,-1.9803 2.0203,-2.9286 3.3183,-3.3879 7.0725,-6.3472 11.1729,-8.7859l3.9697 6.8756c-4.3193,2.5809 -8.1877,5.8378 -11.4605,9.6238l-5.7024 -4.7849zm74.8642 -7.7858c2.7102,2.5013 5.005,5.3024 6.7988,8.3337l-5.0504 4.2377c-3.272,-3.787 -7.1406,-7.0436 -11.4592,-9.6253l3.9695 -6.8754c1.9994,1.1897 3.9167,2.5029 5.7413,3.9293zm7.4595 9.506c2.4072,4.4671 3.7439,9.3964 3.7439,14.5779 0,0.6977 -0.0266,1.3903 -0.0743,2.0783l-1.0372 0.3775c-1.7997,-4.7339 -4.3453,-9.0999 -7.4923,-12.9557l4.8599 -4.078zm3.5324 18.1138c-0.042,0.3563 -0.0894,0.7114 -0.1443,1.0646 -0.0982,-0.3018 -0.1993,-0.6025 -0.3034,-0.9016l0.4477 -0.163zm-34.5329 -38.2765c5.9465,1.1165 11.5537,3.194 16.6549,6.0649l-3.9695 6.8753c-4.3128,-2.4155 -9.0467,-4.1686 -14.0641,-5.1214l1.3787 -7.8188zm-36.9855 6.0648c5.1016,-2.8696 10.7091,-4.946 16.6554,-6.0618l1.3787 7.8185c-5.0174,0.9521 -9.7506,2.7057 -14.0638,5.1201l-3.9703 -6.8768z"/>
    <line id="_461881352" class="fil7 str2" x1="110.929" y1="44.5123" x2="113.439" y2= "43.0629" />
    <line id="_461881160" class="fil7 str2" x1="100.158" y1="31.7809" x2="103.729" y2= "27.5245" />
    <line id="_463141960" class="fil7 str2" x1="69.2785" y1="15.038" x2="69.2785" y2= "20.5943" />
    <line id="_461873840" class="fil7 str2" x1="50.9464" y1="18.2452" x2="52.8469" y2= "23.4665" />
    <line id="_179028608" class="fil7 str2" x1="87.5763" y1="18.2328" x2="85.6759" y2= "23.454" />
    <line id="_461873264" class="fil7 str2" x1="34.8368" y1="27.5171" x2="38.4083" y2= "31.7735" />
    <line id="_461873360" class="fil7 str2" x1="24.1751" y1="42.8556" x2="27.4818" y2= "44.7647" />
   </g>
  </g>
 </g>
</svg>
